<!-- Generated by IcoMoon.io -->
<svg version="1.1" xmlns="http://www.w3.org/2000/svg" width="32" height="32" viewBox="0 0 32 32">
<title>close</title>
<path d="M1.646 32c-0 0-0 0-0 0-0.909 0-1.646-0.737-1.646-1.646 0-0.455 0.185-0.867 0.483-1.165l28.707-28.707c0.298-0.298 0.71-0.483 1.165-0.483 0.91 0 1.647 0.737 1.647 1.647 0 0.455-0.184 0.866-0.482 1.164l-28.709 28.707c-0.298 0.298-0.71 0.482-1.165 0.483h-0z"></path>
<path d="M30.355 32c-0.422 0-0.844-0.16-1.165-0.483l-28.707-28.707c-0.298-0.298-0.483-0.71-0.483-1.165 0-0.909 0.737-1.646 1.646-1.646 0.454 0 0.866 0.184 1.164 0.482v0l28.707 28.708c0.298 0.298 0.483 0.71 0.483 1.165 0 0.909-0.736 1.646-1.645 1.646h-0z"></path>
</svg>
