<svg xmlns="http://www.w3.org/2000/svg" width="1024" height="1024">
  <path d="M512 864.6c-22.6 0-40.8 18.2-40.8 40.8v55.8c0 22.6 18.2 40.8 40.8 40.8s40.8-18.2 40.8-40.8v-55.8c0-22.6-18.2-40.8-40.8-40.8zM512 205c-169.2 0-307 137.6-307 307 0 169.2 137.6 307 307 307 169.2 0 307-137.6 307-307 0-169.2-137.8-307-307-307zm0 532.2c-124.2 0-225.2-101-225.2-225.2s101-225.2 225.2-225.2 225.2 101 225.2 225.2c0 124.2-101 225.2-225.2 225.2zM512 159.4c22.6 0 40.8-18.2 40.8-40.8V62.8c0-22.6-18.2-40.8-40.8-40.8s-40.8 18.2-40.8 40.8v55.8c0 22.6 18.2 40.8 40.8 40.8zM961.2 471.2h-55.8c-22.6 0-40.8 18.2-40.8 40.8s18.2 40.8 40.8 40.8h55.8c22.6 0 40.8-18.2 40.8-40.8s-18.2-40.8-40.8-40.8zM118.6 471.2H62.8C40.2 471.2 22 489.4 22 512s18.2 40.8 40.8 40.8h55.8c22.6 0 40.8-18.2 40.8-40.8s-18.2-40.8-40.8-40.8zM819 262.8l39.4-39.4c16-16 16-41.8 0-57.8s-41.8-16-57.8 0L761.2 205c-16 16-16 41.8 0 57.8s41.8 15.8 57.8 0zM205 761.2l-39.4 39.4c-16 16-16 41.8 0 57.8s41.8 16 57.8 0l39.4-39.4c16-16 16-41.8 0-57.8s-41.8-15.8-57.8 0zM819 761.2c-16-16-41.8-16-57.8 0s-16 41.8 0 57.8l39.4 39.4c16 16 41.8 16 57.8 0s16-41.8 0-57.8L819 761.2zM205 262.8c16 16 41.8 16 57.8 0s16-41.8 0-57.8l-39.4-39.4c-16-16-41.8-16-57.8 0s-16 41.8 0 57.8l39.4 39.4z"/>
</svg>
